<svg width="100" height="100" viewBox="0 0 100 100" fill="none" xmlns="http://www.w3.org/2000/svg">
<g clip-path="url(#clip0_29_4)">
<path d="M41.6667 99.4444C18.0556 95.2778 0 74.7222 0 50C0 22.5 22.5 0 50 0C77.5 0 100 22.5 100 50C100 74.7222 81.9444 95.2778 58.3333 99.4444L55.5556 97.2222H44.4444L41.6667 99.4444Z" fill="url(#paint0_linear_29_4)"/>
<path d="M69.4444 63.8889L71.6666 50H58.3333V40.2778C58.3333 36.3889 59.7222 33.3333 65.8333 33.3333H72.2222V20.5556C68.6111 20 64.7222 19.4444 61.1111 19.4444C49.7222 19.4444 41.6666 26.3889 41.6666 38.8889V50H29.1666V63.8889H41.6666V99.1667C44.4444 99.7222 47.2222 100 50 100C52.7777 100 55.5555 99.7222 58.3333 99.1667V63.8889H69.4444Z" fill="white"/>
</g>
<defs>
<linearGradient id="paint0_linear_29_4" x1="5000" y1="9653.87" x2="5000" y2="0" gradientUnits="userSpaceOnUse">
<stop stop-color="#0062E0"/>
<stop offset="1" stop-color="#19AFFF"/>
</linearGradient>
<clipPath id="clip0_29_4">
<rect width="100" height="100" fill="white"/>
</clipPath>
</defs>
</svg>
