<svg width="100" height="103" viewBox="0 0 100 103" fill="none" xmlns="http://www.w3.org/2000/svg">
<path d="M99.9523 52.1293C99.9523 47.9363 99.6121 44.8766 98.8758 41.7035H50.9961V60.6285H79.1004C78.534 65.3316 75.4742 72.4145 68.6746 77.1738L68.5793 77.8074L83.718 89.5352L84.7668 89.6398C94.3992 80.7438 99.9523 67.6547 99.9523 52.1293Z" fill="#4285F4"/>
<path d="M50.9961 101.992C64.7648 101.992 76.3238 97.459 84.7668 89.6398L68.6746 77.1738C64.3684 80.177 58.5887 82.2734 50.9961 82.2734C37.5105 82.2734 26.0648 73.3777 21.9848 61.082L21.3867 61.1328L5.64531 73.3152L5.43945 73.8875C13.8254 90.5461 31.0508 101.992 50.9961 101.992Z" fill="#34A853"/>
<path d="M21.9848 61.082C20.9082 57.909 20.2852 54.509 20.2852 50.9961C20.2852 47.4828 20.9082 44.0832 21.9281 40.9102L21.8996 40.2344L5.96094 27.8562L5.43945 28.1043C1.9832 35.0172 0 42.7801 0 50.9961C0 59.2121 1.9832 66.9746 5.43945 73.8875L21.9848 61.082Z" fill="#FBBC05"/>
<path d="M50.9961 19.7184C60.5719 19.7184 67.0313 23.8547 70.7145 27.3113L85.1066 13.259C76.2676 5.04297 64.7648 0 50.9961 0C31.0508 0 13.8254 11.4457 5.43945 28.1043L21.9281 40.9102C26.0648 28.6145 37.5105 19.7184 50.9961 19.7184Z" fill="#EB4335"/>
</svg>
