<svg width="100" height="123" viewBox="0 0 100 123" fill="none" xmlns="http://www.w3.org/2000/svg">
<g clip-path="url(#clip0_29_12)">
<path d="M96.6802 41.7562C95.9697 42.3074 83.427 49.3749 83.427 65.0901C83.427 83.2674 99.3871 89.698 99.8649 89.8572C99.7914 90.2492 97.3294 98.6641 91.4499 107.238C86.2074 114.784 80.7322 122.317 72.403 122.317C64.0739 122.317 61.9303 117.478 52.315 117.478C42.9447 117.478 39.613 122.476 31.9942 122.476C24.3755 122.476 19.0595 115.494 12.9473 106.92C5.86753 96.8513 0.147339 81.2096 0.147339 66.364C0.147339 42.5523 15.6298 29.9238 30.8673 29.9238C38.9638 29.9238 45.7129 35.2398 50.7961 35.2398C55.6344 35.2398 63.1797 29.6054 72.3908 29.6054C75.8817 29.6054 88.4245 29.9238 96.6802 41.7562ZM68.018 19.5246C71.8273 15.0048 74.5221 8.7334 74.5221 2.46201C74.5221 1.59234 74.4486 0.710431 74.2894 0C68.0915 0.232727 60.7177 4.12785 56.2714 9.28459C52.7805 13.2532 49.5223 19.5246 49.5223 25.8817C49.5223 26.8371 49.6815 27.7925 49.755 28.0988C50.147 28.1722 50.7839 28.258 51.4208 28.258C56.9818 28.258 63.9759 24.5344 68.018 19.5246Z" fill="black"/>
</g>
<defs>
<clipPath id="clip0_29_12">
<rect width="100" height="122.488" fill="white"/>
</clipPath>
</defs>
</svg>
